<svg xmlns="http://www.w3.org/2000/svg" viewBox="0 0 64 64" id="semi-truck">
  <path fill="#ff6c58" d="M27 15h15.5l13 16H61v10H27z"></path>
  <path fill="#597380" fill-rule="evenodd" d="M0 44h28l22 4v4H2c-1.1 0-2-.9-2-2v-6z" clip-rule="evenodd"></path>
  <path fill="#d7385e" d="M28 15h-4v33h37l-1-8c0-2.2-1.8-4-4-4H44c-8.8 0-16-1.8-16-4V15z"></path>
  <path fill="#fff" d="M44 24h7l3 8h-7c-1.7 0-3-1.3-3-3v-5z"></path>
  <path fill="#acbdc5" d="M40 10v3.5l.5 2L40 17v31h-4V16.5l-.5-1.5.5-2v-3c0-1.1-.9-2-2-2h-2V4h2c3.3 0 6 2.7 6 6zM6 47c-1.7 0-3 1.3-3 3s1.3 3 3 3 3-1.3 3-3-1.3-3-3-3zm15 3c0 1.7-1.3 3-3 3s-3-1.3-3-3 1.3-3 3-3 3 1.3 3 3zm30 0c0-1.7 1.3-3 3-3s3 1.3 3 3-1.3 3-3 3-3-1.3-3-3z"></path>
  <path fill="#314a52" fill-rule="evenodd" d="M40 13.2v4.1c4.5 1.3 8.2 4.5 9.9 9l2.2 5.7H56c2.2 0 4 1.8 4 4v12h-.3c-.8-2.3-3-4-5.7-4-3.3 0-6 2.7-6 6s2.7 6 6 6c2.6 0 4.8-1.7 5.7-4H64V36c0-4.4-3.6-8-8-8h-1.1l-1.3-3.2c-2.3-5.9-7.5-10.2-13.6-11.6zM6 44c-3.3 0-6 2.7-6 6s2.7 6 6 6 6-2.7 6-6c0 3.3 2.7 6 6 6s6-2.7 6-6-2.7-6-6-6-6 2.7-6 6c0-3.3-2.7-6-6-6zm46 6c0-1.1.9-2 2-2s2 .9 2 2-.9 2-2 2-2-.9-2-2zm-36 0c0-1.1.9-2 2-2s2 .9 2 2-.9 2-2 2-2-.9-2-2zM4 50c0-1.1.9-2 2-2s2 .9 2 2-.9 2-2 2-2-.9-2-2zm32-37.3v4l-6.1-.7H24v-4h6.1l5.9.7z" clip-rule="evenodd"></path>
</svg>
